<?xml version="1.0" standalone="no"?>
<!DOCTYPE svg PUBLIC "-//W3C//DTD SVG 20010904//EN"
 "http://www.w3.org/TR/2001/REC-SVG-20010904/DTD/svg10.dtd">
<svg version="1.0" xmlns="http://www.w3.org/2000/svg"
 width="150.000000pt" height="150.000000pt" viewBox="0 0 150.000000 150.000000"
 preserveAspectRatio="xMidYMid meet">

<g transform="translate(0.000000,150.000000) scale(0.100000,-0.100000)"
fill="#000000" stroke="none">
<path d="M662 1450 c-20 -12 -41 -39 -54 -66 -17 -40 -18 -53 -9 -102 6 -32
17 -78 25 -104 13 -42 8 -65 -9 -38 -5 9 -32 17 -107 34 -22 5 -28 12 -28 32
0 14 -4 23 -10 19 -16 -10 -12 -40 8 -58 10 -9 38 -23 62 -32 72 -25 107 -67
51 -60 -21 2 -45 -7 -82 -31 -57 -36 -78 -41 -97 -22 -9 9 -12 9 -12 0 0 -6 9
-16 21 -23 17 -8 33 -6 79 11 37 14 67 19 81 15 21 -7 22 -8 5 -21 -10 -7 -37
-16 -59 -19 -23 -4 -54 -13 -68 -21 -30 -15 -79 -69 -79 -87 0 -6 7 -1 16 11
22 32 61 49 124 55 30 3 68 10 83 16 16 6 30 11 31 11 2 0 3 -19 3 -42 0 -24
3 -64 7 -90 12 -68 -1 -82 -54 -56 -53 27 -102 18 -147 -27 -83 -83 -2 -214
119 -191 65 12 111 90 89 149 -8 21 -17 27 -40 27 -16 0 -32 4 -36 10 -3 5 8
7 29 5 23 -3 40 1 50 11 18 18 18 19 21 96 1 50 6 61 31 85 l29 27 3 -30 c5
-47 21 -79 50 -96 15 -9 41 -29 57 -45 17 -15 26 -25 21 -20 -31 23 -36 7 -36
-109 0 -114 0 -115 23 -112 18 2 23 10 25 41 3 31 7 37 25 37 75 0 102 105 35
141 -16 9 -22 8 -29 -2 -7 -11 -9 -11 -9 2 0 9 -16 30 -36 45 -59 46 -64 54
-64 89 0 42 16 53 38 28 34 -38 82 -52 160 -47 85 5 112 -5 112 -44 0 -21 2
-24 10 -12 29 45 -6 73 -124 100 -63 14 -106 30 -124 45 l-27 23 28 7 c15 4
37 5 50 2 12 -3 43 -11 69 -18 40 -10 50 -10 72 5 26 17 35 50 16 61 -5 3 -10
-3 -10 -14 0 -39 -44 -47 -108 -18 -26 11 -60 23 -77 25 -16 2 -32 6 -34 8 -9
8 38 48 81 68 53 26 66 46 50 78 -6 12 -11 16 -11 8 3 -40 -3 -51 -37 -65 -20
-8 -43 -15 -52 -15 -8 0 -24 -7 -34 -17 -17 -15 -18 -15 -18 4 0 11 8 44 19
74 41 121 37 181 -19 234 -40 39 -120 46 -168 15z m47 -114 c17 -20 10 -67
-11 -79 -23 -15 -48 8 -48 42 0 45 35 66 59 37z m100 0 c17 -20 10 -67 -11
-79 -23 -15 -48 8 -48 42 0 45 35 66 59 37z m117 -632 c-5 -14 -33 -30 -41
-23 -2 2 -6 16 -10 32 -6 22 -4 26 9 21 11 -4 16 -1 16 12 0 16 2 15 16 -4 9
-13 13 -30 10 -38z m-346 26 c24 -24 26 -77 3 -102 -16 -18 -68 -24 -89 -10
-15 10 -34 47 -34 67 0 25 46 65 75 65 14 0 34 -9 45 -20z"/>
<path d="M680 1285 c0 -8 5 -15 10 -15 6 0 10 7 10 15 0 8 -4 15 -10 15 -5 0
-10 -7 -10 -15z"/>
<path d="M770 1285 c0 -8 5 -15 10 -15 6 0 10 7 10 15 0 8 -4 15 -10 15 -5 0
-10 -7 -10 -15z"/>
<path d="M1083 793 c-32 -6 -80 -57 -88 -92 -9 -41 17 -97 57 -121 85 -51 188
4 188 100 0 49 -25 86 -70 104 -41 16 -47 17 -87 9z m86 -69 c41 -52 13 -114
-51 -114 -42 0 -68 25 -68 67 0 68 78 99 119 47z"/>
<path d="M240 675 l0 -115 25 0 c23 0 25 4 25 40 0 37 2 40 28 40 37 0 72 37
72 76 0 52 -32 74 -104 74 l-46 0 0 -115z m96 49 c4 -17 2 -29 -7 -35 -27 -17
-39 -9 -39 26 0 28 4 35 20 35 13 0 22 -9 26 -26z"/>
<path d="M680 675 l0 -116 63 3 c54 3 62 5 62 23 0 11 -7 20 -15 21 -65 4 -60
-4 -60 94 0 89 0 90 -25 90 l-25 0 0 -115z"/>
<path d="M160 426 l0 -116 53 0 c98 0 162 70 138 150 -17 58 -42 74 -122 78
l-69 4 0 -116z m128 47 c30 -41 1 -113 -46 -113 -27 0 -27 1 -26 63 1 34 2 66
3 71 2 13 55 -3 69 -21z"/>
<path d="M375 530 c-4 -6 -2 -17 4 -24 6 -7 8 -22 5 -32 -6 -17 -5 -17 9 -4
23 21 26 63 5 68 -9 2 -19 -2 -23 -8z"/>
<path d="M447 432 c-26 -59 -47 -110 -47 -114 0 -15 48 -8 54 7 8 21 75 20 90
-1 7 -9 22 -14 37 -12 l26 3 -50 113 c-27 61 -52 112 -56 112 -3 0 -27 -49
-54 -108z m68 -29 c5 -19 2 -23 -14 -23 -23 0 -24 3 -15 38 7 26 18 20 29 -15z"/>
<path d="M657 524 c-3 -11 -11 -55 -17 -99 -6 -44 -13 -88 -16 -97 -4 -14 1
-18 19 -18 28 0 37 16 37 66 0 19 3 34 8 34 4 0 20 -24 36 -52 l28 -52 19 25
c10 13 24 36 30 52 16 37 29 34 29 -7 0 -50 9 -66 37 -66 27 0 27 -4 -1 165
l-12 70 -49 -73 -48 -72 -48 71 c-36 55 -48 67 -52 53z"/>
<path d="M945 518 c-60 -47 -63 -129 -5 -180 25 -23 40 -28 81 -28 45 0 55 4
85 34 29 29 34 41 34 81 0 40 -5 52 -34 81 -30 30 -41 34 -84 34 -35 0 -57 -6
-77 -22z m119 -39 c34 -27 35 -71 1 -104 -13 -14 -33 -25 -45 -25 -29 0 -70
44 -70 75 0 30 41 75 68 75 11 0 31 -9 46 -21z"/>
<path d="M1160 425 l0 -115 24 0 c23 0 25 5 28 48 l3 47 30 -47 c24 -38 35
-48 57 -48 16 0 28 2 28 5 0 2 -14 24 -31 49 -30 41 -31 46 -15 61 27 27 25
72 -6 98 -13 11 -37 17 -69 17 l-49 0 0 -115z m88 46 c4 -23 -15 -44 -30 -35
-4 3 -8 19 -8 35 0 24 4 30 18 27 9 -2 19 -14 20 -27z"/>
</g>
</svg>
